G04*
G04 #@! TF.GenerationSoftware,Altium Limited,Altium Designer,24.8.2 (39)*
G04*
G04 Layer_Physical_Order=2*
G04 Layer_Color=16711680*
%FSLAX23Y23*%
%MOIN*%
G70*
G04*
G04 #@! TF.SameCoordinates,0D03BC48-351D-4F96-96CD-3B8D4E6E46E2*
G04*
G04*
G04 #@! TF.FilePolarity,Positive*
G04*
G01*
G75*
%ADD42C,0.024*%
%ADD44C,0.024*%
%ADD45C,0.021*%
%ADD46C,0.021*%
G04:AMPARAMS|DCode=47|XSize=20mil|YSize=20mil|CornerRadius=5mil|HoleSize=0mil|Usage=FLASHONLY|Rotation=180.000|XOffset=0mil|YOffset=0mil|HoleType=Round|Shape=RoundedRectangle|*
%AMROUNDEDRECTD47*
21,1,0.020,0.010,0,0,180.0*
21,1,0.010,0.020,0,0,180.0*
1,1,0.010,-0.005,0.005*
1,1,0.010,0.005,0.005*
1,1,0.010,0.005,-0.005*
1,1,0.010,-0.005,-0.005*
%
%ADD47ROUNDEDRECTD47*%
G36*
X2388Y2402D02*
X1037D01*
Y3176D01*
X2388D01*
Y2402D01*
D02*
G37*
%LPC*%
G36*
X1752Y3002D02*
X1750Y3002D01*
X1748D01*
X1746Y3001D01*
X1744Y3001D01*
X1743Y3000D01*
X1741Y2999D01*
X1739Y2998D01*
X1738Y2997D01*
X1737Y2995D01*
X1735Y2994D01*
X1734Y2992D01*
X1733Y2990D01*
X1733Y2988D01*
X1732Y2986D01*
Y2984D01*
X1732Y2982D01*
Y2910D01*
X1612Y2790D01*
X1611Y2788D01*
X1609Y2787D01*
X1608Y2785D01*
X1607Y2783D01*
X1607Y2781D01*
X1606Y2780D01*
Y2778D01*
X1606Y2776D01*
X1606Y2774D01*
Y2772D01*
X1607Y2770D01*
X1607Y2768D01*
X1608Y2766D01*
X1609Y2764D01*
X1611Y2763D01*
X1612Y2761D01*
X1613Y2760D01*
X1615Y2759D01*
X1617Y2758D01*
X1618Y2757D01*
X1620Y2757D01*
X1622Y2756D01*
X1624D01*
X1626Y2755D01*
X1628Y2756D01*
X1630D01*
X1632Y2757D01*
X1634Y2757D01*
X1635Y2758D01*
X1637Y2759D01*
X1639Y2760D01*
X1640Y2761D01*
X1766Y2887D01*
X1771Y2894D01*
X1772Y2902D01*
Y2982D01*
X1772Y2984D01*
Y2986D01*
X1771Y2988D01*
X1771Y2990D01*
X1770Y2992D01*
X1769Y2994D01*
X1767Y2995D01*
X1766Y2997D01*
X1765Y2998D01*
X1763Y2999D01*
X1761Y3000D01*
X1760Y3001D01*
X1758Y3001D01*
X1756Y3002D01*
X1754D01*
X1752Y3002D01*
D02*
G37*
%LPD*%
D42*
X1626Y2776D02*
X1752Y2902D01*
Y2982D01*
D44*
X1270Y2667D02*
D03*
X1693Y1693D02*
D03*
X1602Y3004D02*
D03*
X1417D02*
D03*
X1510Y2913D02*
D03*
X1955Y3002D02*
D03*
X1510Y2697D02*
D03*
X1486Y2766D02*
D03*
X1535D02*
D03*
Y2844D02*
D03*
X1486D02*
D03*
X1510Y2805D02*
D03*
X1693Y2352D02*
D03*
X2293Y3071D02*
D03*
X1132D02*
D03*
X1752Y2982D02*
D03*
X1626Y2776D02*
D03*
X1122Y2992D02*
D03*
X1348Y2961D02*
D03*
X1206D02*
D03*
D45*
X2351Y1734D02*
G03*
X1732Y2352I-618J0D01*
G01*
X1938Y1734D02*
G03*
X1732Y1940I-206J0D01*
G01*
X1980Y1734D02*
G03*
X1732Y1981I-247J0D01*
G01*
X2021Y1734D02*
G03*
X1732Y2023I-289J0D01*
G01*
X2062Y1734D02*
G03*
X1732Y2064I-330J0D01*
G01*
X2103Y1734D02*
G03*
X1732Y2105I-371J0D01*
G01*
X2144Y1734D02*
G03*
X1732Y2146I-412J0D01*
G01*
X2186Y1734D02*
G03*
X1732Y2188I-453J0D01*
G01*
X2227Y1734D02*
G03*
X1732Y2229I-495J0D01*
G01*
X2268Y1734D02*
G03*
X1732Y2270I-536J0D01*
G01*
X2309Y1734D02*
G03*
X1732Y2311I-577J0D01*
G01*
Y1487D02*
G03*
X1938Y1693I0J206D01*
G01*
X1732Y1446D02*
G03*
X1980Y1693I0J247D01*
G01*
X1732Y1404D02*
G03*
X2021Y1693I0J289D01*
G01*
X1732Y1363D02*
G03*
X2062Y1693I0J330D01*
G01*
X1732Y1322D02*
G03*
X2103Y1693I0J371D01*
G01*
X1732Y1281D02*
G03*
X2144Y1693I0J412D01*
G01*
X1732Y1239D02*
G03*
X2186Y1693I0J453D01*
G01*
X1732Y1198D02*
G03*
X2227Y1693I0J495D01*
G01*
X1732Y1157D02*
G03*
X2268Y1693I0J536D01*
G01*
X1732Y1116D02*
G03*
X2309Y1693I0J577D01*
G01*
X1732Y1075D02*
G03*
X2351Y1693I0J618D01*
G01*
X1691Y2146D02*
G03*
X1238Y1693I0J-453D01*
G01*
X1691Y2188D02*
G03*
X1196Y1693I0J-495D01*
G01*
X1691Y2229D02*
G03*
X1155Y1693I0J-536D01*
G01*
X1691Y2270D02*
G03*
X1114Y1693I0J-577D01*
G01*
X1691Y2311D02*
G03*
X1073Y1693I0J-618D01*
G01*
X1691Y1734D02*
G03*
X1650Y1693I0J-41D01*
G01*
D02*
G03*
X1691Y1652I41J0D01*
G01*
X1732D02*
G03*
X1774Y1693I0J41D01*
G01*
Y1734D02*
G03*
X1732Y1775I-41J0D01*
G01*
X1691D02*
G03*
X1609Y1693I0J-82D01*
G01*
D02*
G03*
X1691Y1610I82J0D01*
G01*
X1732D02*
G03*
X1815Y1693I0J82D01*
G01*
Y1734D02*
G03*
X1732Y1817I-82J0D01*
G01*
X1691D02*
G03*
X1567Y1693I0J-124D01*
G01*
D02*
G03*
X1691Y1569I124J0D01*
G01*
X1732D02*
G03*
X1856Y1693I0J124D01*
G01*
Y1734D02*
G03*
X1732Y1858I-124J0D01*
G01*
X1691D02*
G03*
X1526Y1693I0J-165D01*
G01*
D02*
G03*
X1691Y1528I165J0D01*
G01*
X1732D02*
G03*
X1897Y1693I0J165D01*
G01*
Y1734D02*
G03*
X1732Y1899I-165J0D01*
G01*
X1691D02*
G03*
X1485Y1693I0J-206D01*
G01*
D02*
G03*
X1691Y1487I206J0D01*
G01*
Y1940D02*
G03*
X1444Y1693I0J-247D01*
G01*
D02*
G03*
X1691Y1446I247J0D01*
G01*
Y1981D02*
G03*
X1403Y1693I0J-289D01*
G01*
D02*
G03*
X1691Y1404I289J0D01*
G01*
Y2023D02*
G03*
X1361Y1693I0J-330D01*
G01*
D02*
G03*
X1691Y1363I330J0D01*
G01*
Y2064D02*
G03*
X1320Y1693I0J-371D01*
G01*
D02*
G03*
X1691Y1322I371J0D01*
G01*
Y2105D02*
G03*
X1279Y1693I0J-412D01*
G01*
D02*
G03*
X1691Y1281I412J0D01*
G01*
X1238Y1693D02*
G03*
X1691Y1239I453J0D01*
G01*
X1196Y1693D02*
G03*
X1691Y1198I495J0D01*
G01*
X1155Y1693D02*
G03*
X1691Y1157I536J0D01*
G01*
X1114Y1693D02*
G03*
X1691Y1116I577J0D01*
G01*
X1073Y1693D02*
G03*
X1691Y1075I618J0D01*
G01*
X1712Y1693D02*
G03*
X1712Y1734I0J21D01*
G01*
X1691Y1075D02*
X1732D01*
X1693Y2352D02*
X1732D01*
X1691D02*
X1693D01*
X1691Y1116D02*
X1732Y1116D01*
X1691Y1157D02*
X1732D01*
X1691Y1198D02*
X1732D01*
X1691Y1239D02*
X1732D01*
X1691Y1281D02*
X1732D01*
X1691Y1404D02*
X1732D01*
X1691Y1322D02*
X1732D01*
X1691Y1363D02*
X1732D01*
X1691Y1487D02*
X1732D01*
X1691Y1446D02*
X1732D01*
X2351Y1693D02*
Y1734D01*
X2309Y1693D02*
Y1734D01*
X2268Y1693D02*
Y1734D01*
X2227Y1693D02*
Y1734D01*
X2186Y1693D02*
Y1734D01*
X2144Y1693D02*
Y1734D01*
X2103Y1693D02*
Y1734D01*
X2062Y1693D02*
Y1734D01*
X1938Y1693D02*
Y1734D01*
X2021Y1693D02*
Y1734D01*
X1980Y1693D02*
Y1734D01*
X1691Y2311D02*
X1732D01*
X1691Y2229D02*
X1732D01*
X1691Y2270D02*
X1732D01*
X1691Y2188D02*
X1732D01*
X1691Y2146D02*
X1732D01*
X1691Y2105D02*
X1732D01*
X1691Y2064D02*
X1732D01*
X1691Y2023D02*
X1732D01*
X1691Y1981D02*
X1732D01*
X1691Y1940D02*
X1732D01*
X1691Y1528D02*
X1732D01*
X1691Y1652D02*
X1732D01*
X1774Y1693D02*
Y1734D01*
X1691Y1775D02*
X1732D01*
X1691Y1610D02*
X1732D01*
X1815Y1693D02*
Y1734D01*
X1691Y1817D02*
X1732D01*
X1691Y1569D02*
X1732D01*
X1856Y1693D02*
Y1734D01*
X1691Y1899D02*
X1732D01*
X1691Y1693D02*
X1712D01*
X1691Y1734D02*
X1712D01*
X1691Y1858D02*
X1732D01*
X1897Y1693D02*
Y1734D01*
D46*
X1691Y1116D02*
D03*
X2227Y1693D02*
D03*
X1732Y2105D02*
D03*
X1712Y1693D02*
D03*
X1712Y1734D02*
D03*
D47*
X1691Y1693D02*
D03*
Y2352D02*
D03*
M02*
