G04*
G04 #@! TF.GenerationSoftware,Altium Limited,Altium Designer,24.8.2 (39)*
G04*
G04 Layer_Color=8388736*
%FSLAX23Y23*%
%MOIN*%
G70*
G04*
G04 #@! TF.SameCoordinates,0D03BC48-351D-4F96-96CD-3B8D4E6E46E2*
G04*
G04*
G04 #@! TF.FilePolarity,Negative*
G04*
G01*
G75*
%ADD28R,0.033X0.041*%
G04:AMPARAMS|DCode=29|XSize=15mil|YSize=30mil|CornerRadius=5mil|HoleSize=0mil|Usage=FLASHONLY|Rotation=180.000|XOffset=0mil|YOffset=0mil|HoleType=Round|Shape=RoundedRectangle|*
%AMROUNDEDRECTD29*
21,1,0.015,0.020,0,0,180.0*
21,1,0.005,0.030,0,0,180.0*
1,1,0.010,-0.003,0.010*
1,1,0.010,0.003,0.010*
1,1,0.010,0.003,-0.010*
1,1,0.010,-0.003,-0.010*
%
%ADD29ROUNDEDRECTD29*%
G04:AMPARAMS|DCode=30|XSize=30mil|YSize=15mil|CornerRadius=5mil|HoleSize=0mil|Usage=FLASHONLY|Rotation=180.000|XOffset=0mil|YOffset=0mil|HoleType=Round|Shape=RoundedRectangle|*
%AMROUNDEDRECTD30*
21,1,0.030,0.005,0,0,180.0*
21,1,0.020,0.015,0,0,180.0*
1,1,0.010,-0.010,0.003*
1,1,0.010,0.010,0.003*
1,1,0.010,0.010,-0.003*
1,1,0.010,-0.010,-0.003*
%
%ADD30ROUNDEDRECTD30*%
G04:AMPARAMS|DCode=31|XSize=87mil|YSize=126mil|CornerRadius=5mil|HoleSize=0mil|Usage=FLASHONLY|Rotation=180.000|XOffset=0mil|YOffset=0mil|HoleType=Round|Shape=RoundedRectangle|*
%AMROUNDEDRECTD31*
21,1,0.087,0.116,0,0,180.0*
21,1,0.077,0.126,0,0,180.0*
1,1,0.010,-0.038,0.058*
1,1,0.010,0.038,0.058*
1,1,0.010,0.038,-0.058*
1,1,0.010,-0.038,-0.058*
%
%ADD31ROUNDEDRECTD31*%
%ADD32C,0.055*%
%ADD33R,0.041X0.033*%
%ADD34R,0.046X0.036*%
%ADD35R,0.056X0.066*%
%ADD36R,0.036X0.046*%
%ADD37R,0.066X0.056*%
%ADD38R,0.053X0.053*%
%ADD39C,0.030*%
G36*
X1497Y2705D02*
X1496Y2705D01*
X1496Y2705D01*
X1496Y2705D01*
X1495Y2705D01*
X1495Y2705D01*
X1495Y2705D01*
X1494Y2705D01*
X1494Y2705D01*
X1494Y2706D01*
X1494Y2706D01*
X1493Y2706D01*
X1493Y2706D01*
X1493Y2706D01*
X1493Y2706D01*
X1492Y2707D01*
X1492Y2707D01*
X1492Y2707D01*
X1492Y2707D01*
X1492Y2708D01*
X1492Y2708D01*
X1491Y2708D01*
X1491Y2709D01*
X1491Y2709D01*
X1491Y2709D01*
X1491Y2709D01*
X1491Y2710D01*
X1491Y2710D01*
X1491Y2710D01*
X1491Y2711D01*
Y2741D01*
X1471D01*
X1471Y2741D01*
X1471Y2741D01*
X1470Y2741D01*
X1470Y2741D01*
X1470Y2741D01*
X1469Y2741D01*
X1469Y2742D01*
X1469Y2742D01*
X1469Y2742D01*
X1468Y2742D01*
X1468Y2742D01*
X1468Y2742D01*
X1467Y2743D01*
X1467Y2743D01*
X1467Y2743D01*
X1467Y2743D01*
X1467Y2743D01*
X1466Y2744D01*
X1466Y2744D01*
X1466Y2744D01*
X1466Y2744D01*
X1466Y2745D01*
X1466Y2745D01*
X1466Y2745D01*
X1465Y2746D01*
X1465Y2746D01*
X1465Y2746D01*
X1465Y2747D01*
X1465Y2747D01*
X1465Y2747D01*
Y2863D01*
X1465Y2864D01*
X1465Y2864D01*
X1465Y2864D01*
X1465Y2865D01*
X1465Y2865D01*
X1466Y2865D01*
X1466Y2865D01*
X1466Y2866D01*
X1466Y2866D01*
X1466Y2866D01*
X1466Y2867D01*
X1466Y2867D01*
X1467Y2867D01*
X1467Y2867D01*
X1467Y2868D01*
X1467Y2868D01*
X1467Y2868D01*
X1468Y2868D01*
X1468Y2868D01*
X1468Y2868D01*
X1469Y2869D01*
X1469Y2869D01*
X1469Y2869D01*
X1469Y2869D01*
X1470Y2869D01*
X1470Y2869D01*
X1470Y2869D01*
X1471Y2869D01*
X1471Y2869D01*
X1471Y2869D01*
X1491D01*
X1491Y2869D01*
X1491Y2869D01*
X1491Y2869D01*
X1491Y2869D01*
X1491Y2869D01*
X1491Y2869D01*
X1491Y2869D01*
X1491Y2869D01*
X1491Y2869D01*
X1491Y2869D01*
X1491Y2869D01*
X1491Y2869D01*
X1491Y2869D01*
X1491Y2869D01*
X1491Y2869D01*
X1491Y2869D01*
X1491Y2869D01*
X1491Y2869D01*
X1491Y2869D01*
X1491Y2869D01*
X1491Y2869D01*
X1491Y2869D01*
X1491Y2869D01*
X1491Y2869D01*
X1491Y2869D01*
X1491Y2869D01*
X1491Y2869D01*
X1491Y2869D01*
Y2869D01*
X1491Y2869D01*
Y2900D01*
X1491Y2900D01*
X1491Y2900D01*
X1491Y2901D01*
X1491Y2901D01*
X1491Y2901D01*
X1491Y2902D01*
X1491Y2902D01*
X1491Y2902D01*
X1492Y2902D01*
X1492Y2903D01*
X1492Y2903D01*
X1492Y2903D01*
X1492Y2903D01*
X1492Y2904D01*
X1493Y2904D01*
X1493Y2904D01*
X1493Y2904D01*
X1493Y2905D01*
X1494Y2905D01*
X1494Y2905D01*
X1494Y2905D01*
X1494Y2905D01*
X1495Y2905D01*
X1495Y2905D01*
X1495Y2905D01*
X1496Y2906D01*
X1496Y2906D01*
X1496Y2906D01*
X1496Y2906D01*
X1497Y2906D01*
X1501D01*
X1501Y2906D01*
X1502Y2906D01*
X1502Y2906D01*
X1502Y2906D01*
X1502Y2905D01*
X1503Y2905D01*
X1503Y2905D01*
X1503Y2905D01*
X1504Y2905D01*
X1504Y2905D01*
X1504Y2905D01*
X1504Y2905D01*
X1505Y2904D01*
X1505Y2904D01*
X1505Y2904D01*
X1505Y2904D01*
X1505Y2903D01*
X1506Y2903D01*
X1506Y2903D01*
X1506Y2903D01*
X1506Y2902D01*
X1506Y2902D01*
X1506Y2902D01*
X1506Y2902D01*
X1507Y2901D01*
X1507Y2901D01*
X1507Y2901D01*
X1507Y2900D01*
X1507Y2900D01*
X1507Y2900D01*
Y2885D01*
X1512D01*
X1512Y2885D01*
X1512Y2885D01*
X1512Y2885D01*
X1512Y2885D01*
X1512Y2885D01*
X1512Y2885D01*
X1512Y2885D01*
X1512Y2885D01*
X1512Y2885D01*
X1513Y2885D01*
X1513Y2885D01*
X1513Y2885D01*
X1513Y2885D01*
X1513Y2885D01*
X1513Y2885D01*
X1513Y2885D01*
X1513Y2885D01*
X1513Y2885D01*
X1513Y2885D01*
X1513Y2885D01*
X1513Y2885D01*
X1513Y2885D01*
X1513Y2885D01*
X1513Y2885D01*
X1513Y2885D01*
X1513Y2885D01*
X1513Y2885D01*
X1513Y2885D01*
X1513Y2885D01*
Y2885D01*
X1513Y2900D01*
X1513Y2900D01*
X1513Y2900D01*
X1513Y2901D01*
X1513Y2901D01*
X1513Y2901D01*
X1513Y2902D01*
X1513Y2902D01*
X1513Y2902D01*
X1513Y2902D01*
X1513Y2903D01*
X1513Y2903D01*
X1514Y2903D01*
X1514Y2903D01*
X1514Y2904D01*
X1514Y2904D01*
X1514Y2904D01*
X1515Y2904D01*
X1515Y2905D01*
X1515Y2905D01*
X1515Y2905D01*
X1516Y2905D01*
X1516Y2905D01*
X1516Y2905D01*
X1517Y2905D01*
X1517Y2905D01*
X1517Y2906D01*
X1518Y2906D01*
X1518Y2906D01*
X1518Y2906D01*
X1518Y2906D01*
X1523D01*
X1523Y2906D01*
X1523Y2906D01*
X1524Y2906D01*
X1524Y2906D01*
X1524Y2905D01*
X1524Y2905D01*
X1525Y2905D01*
X1525Y2905D01*
X1525Y2905D01*
X1526Y2905D01*
X1526Y2905D01*
X1526Y2905D01*
X1526Y2904D01*
X1526Y2904D01*
X1527Y2904D01*
X1527Y2904D01*
X1527Y2903D01*
X1527Y2903D01*
X1527Y2903D01*
X1528Y2903D01*
X1528Y2902D01*
X1528Y2902D01*
X1528Y2902D01*
X1528Y2902D01*
X1528Y2901D01*
X1528Y2901D01*
X1528Y2901D01*
X1528Y2900D01*
X1528Y2900D01*
X1528Y2900D01*
Y2869D01*
X1548D01*
X1548Y2869D01*
X1549Y2869D01*
X1549Y2869D01*
X1549Y2869D01*
X1550Y2869D01*
X1550Y2869D01*
X1550Y2869D01*
X1550Y2869D01*
X1551Y2869D01*
X1551Y2868D01*
X1551Y2868D01*
X1552Y2868D01*
X1552Y2868D01*
X1552Y2868D01*
X1552Y2868D01*
X1552Y2867D01*
X1553Y2867D01*
X1553Y2867D01*
X1553Y2867D01*
X1553Y2866D01*
X1553Y2866D01*
X1553Y2866D01*
X1554Y2865D01*
X1554Y2865D01*
X1554Y2865D01*
X1554Y2865D01*
X1554Y2864D01*
X1554Y2864D01*
X1554Y2864D01*
X1554Y2863D01*
Y2747D01*
X1554Y2747D01*
X1554Y2747D01*
X1554Y2746D01*
X1554Y2746D01*
X1554Y2746D01*
X1554Y2745D01*
X1554Y2745D01*
X1553Y2745D01*
X1553Y2744D01*
X1553Y2744D01*
X1553Y2744D01*
X1553Y2744D01*
X1553Y2743D01*
X1552Y2743D01*
X1552Y2743D01*
X1552Y2743D01*
X1552Y2743D01*
X1552Y2742D01*
X1551Y2742D01*
X1551Y2742D01*
X1551Y2742D01*
X1550Y2742D01*
X1550Y2742D01*
X1550Y2741D01*
X1550Y2741D01*
X1549Y2741D01*
X1549Y2741D01*
X1549Y2741D01*
X1548Y2741D01*
X1548Y2741D01*
X1528Y2741D01*
X1528Y2741D01*
X1528Y2741D01*
X1528Y2741D01*
X1528Y2741D01*
X1528Y2741D01*
X1528Y2741D01*
X1528Y2741D01*
X1528Y2741D01*
X1528Y2741D01*
X1528Y2741D01*
X1528Y2741D01*
X1528Y2741D01*
X1528Y2741D01*
X1528Y2741D01*
X1528Y2741D01*
X1528Y2741D01*
X1528Y2741D01*
X1528Y2741D01*
X1528Y2741D01*
X1528Y2741D01*
X1528Y2741D01*
X1528Y2741D01*
X1528Y2741D01*
X1528Y2741D01*
X1528Y2741D01*
X1528Y2741D01*
X1528Y2741D01*
X1528Y2741D01*
X1528Y2741D01*
X1528Y2741D01*
Y2711D01*
X1528Y2710D01*
X1528Y2710D01*
X1528Y2710D01*
X1528Y2709D01*
X1528Y2709D01*
X1528Y2709D01*
X1528Y2709D01*
X1528Y2708D01*
X1528Y2708D01*
X1528Y2708D01*
X1527Y2707D01*
X1527Y2707D01*
X1527Y2707D01*
X1527Y2707D01*
X1527Y2707D01*
X1526Y2706D01*
X1526Y2706D01*
X1526Y2706D01*
X1526Y2706D01*
X1525Y2706D01*
X1525Y2705D01*
X1525Y2705D01*
X1525Y2705D01*
X1524Y2705D01*
X1524Y2705D01*
X1524Y2705D01*
X1523Y2705D01*
X1523Y2705D01*
X1523Y2705D01*
X1522Y2705D01*
X1519D01*
X1518Y2705D01*
X1518Y2705D01*
X1518Y2705D01*
X1517Y2705D01*
X1517Y2705D01*
X1517Y2705D01*
X1516Y2705D01*
X1516Y2705D01*
X1516Y2705D01*
X1516Y2706D01*
X1515Y2706D01*
X1515Y2706D01*
X1515Y2706D01*
X1515Y2706D01*
X1514Y2707D01*
X1514Y2707D01*
X1514Y2707D01*
X1514Y2707D01*
X1513Y2707D01*
X1513Y2708D01*
X1513Y2708D01*
X1513Y2708D01*
X1513Y2709D01*
X1513Y2709D01*
X1513Y2709D01*
X1513Y2709D01*
X1513Y2710D01*
X1513Y2710D01*
X1513Y2710D01*
X1513Y2711D01*
X1513Y2725D01*
X1507Y2725D01*
Y2711D01*
X1507Y2710D01*
X1507Y2710D01*
X1507Y2710D01*
X1507Y2709D01*
X1507Y2709D01*
X1506Y2709D01*
X1506Y2709D01*
X1506Y2708D01*
X1506Y2708D01*
X1506Y2708D01*
X1506Y2707D01*
X1506Y2707D01*
X1505Y2707D01*
X1505Y2707D01*
X1505Y2706D01*
X1505Y2706D01*
X1505Y2706D01*
X1504Y2706D01*
X1504Y2706D01*
X1504Y2706D01*
X1504Y2705D01*
X1503Y2705D01*
X1503Y2705D01*
X1503Y2705D01*
X1502Y2705D01*
X1502Y2705D01*
X1502Y2705D01*
X1501Y2705D01*
X1501Y2705D01*
X1501Y2705D01*
X1497D01*
X1497Y2705D01*
D02*
G37*
D28*
X1555Y2951D02*
D03*
Y3002D02*
D03*
X1467Y2951D02*
D03*
Y3002D02*
D03*
X1752Y2780D02*
D03*
Y2728D02*
D03*
X1823Y2780D02*
D03*
Y2728D02*
D03*
X1654Y2531D02*
D03*
Y2480D02*
D03*
X1681Y2778D02*
D03*
Y2727D02*
D03*
X1348Y2852D02*
D03*
Y2904D02*
D03*
X1277Y2852D02*
D03*
Y2904D02*
D03*
X1206Y2901D02*
D03*
Y2849D02*
D03*
D29*
X1539Y2721D02*
D03*
X1480D02*
D03*
X1539Y2890D02*
D03*
X1480D02*
D03*
D30*
X1575Y2795D02*
D03*
Y2815D02*
D03*
X1575Y2835D02*
D03*
Y2854D02*
D03*
Y2874D02*
D03*
Y2776D02*
D03*
Y2756D02*
D03*
Y2736D02*
D03*
X1445Y2795D02*
D03*
Y2815D02*
D03*
X1445Y2835D02*
D03*
Y2854D02*
D03*
Y2874D02*
D03*
Y2776D02*
D03*
Y2756D02*
D03*
Y2736D02*
D03*
D31*
X1510Y2805D02*
D03*
D32*
X1707Y2864D02*
D03*
X1890D02*
D03*
X1798D02*
D03*
X1122Y2849D02*
D03*
X1713Y3071D02*
D03*
X1722Y2628D02*
D03*
X1409Y2567D02*
D03*
X1654Y2956D02*
D03*
X1181Y2657D02*
D03*
Y2461D02*
D03*
X1181Y2559D02*
D03*
X1277Y2991D02*
D03*
X1122Y2992D02*
D03*
D33*
X1850Y3002D02*
D03*
X1902D02*
D03*
X1268Y2559D02*
D03*
X1319D02*
D03*
X1268Y2630D02*
D03*
X1319D02*
D03*
X1270Y2488D02*
D03*
X1321D02*
D03*
X1270Y2701D02*
D03*
X1321D02*
D03*
X1337Y3072D02*
D03*
X1388D02*
D03*
X2087Y3071D02*
D03*
X2036D02*
D03*
X1546Y2638D02*
D03*
X1495D02*
D03*
D34*
X1732Y2480D02*
D03*
Y2544D02*
D03*
D35*
X1811Y2480D02*
D03*
Y2570D02*
D03*
D36*
X1486Y2559D02*
D03*
X1550D02*
D03*
D37*
X1445Y2480D02*
D03*
X1535D02*
D03*
D38*
X1179Y3071D02*
D03*
X1262D02*
D03*
X2246D02*
D03*
X2163D02*
D03*
D39*
X1270Y2667D02*
D03*
X1693Y1693D02*
D03*
X1602Y3004D02*
D03*
X1417D02*
D03*
X1510Y2913D02*
D03*
X1955Y3002D02*
D03*
X1510Y2697D02*
D03*
X1486Y2766D02*
D03*
X1535D02*
D03*
Y2844D02*
D03*
X1486D02*
D03*
X1510Y2805D02*
D03*
X1693Y2352D02*
D03*
X2293Y3071D02*
D03*
X1132D02*
D03*
X1752Y2982D02*
D03*
X1626Y2776D02*
D03*
X1122Y2992D02*
D03*
X1348Y2961D02*
D03*
X1206D02*
D03*
M02*
