G04*
G04 #@! TF.GenerationSoftware,Altium Limited,Altium Designer,24.8.2 (39)*
G04*
G04 Layer_Color=32768*
%FSLAX23Y23*%
%MOIN*%
G70*
G04*
G04 #@! TF.SameCoordinates,0D03BC48-351D-4F96-96CD-3B8D4E6E46E2*
G04*
G04*
G04 #@! TF.FilePolarity,Positive*
G04*
G01*
G75*
%ADD48C,0.002*%
%ADD49C,0.004*%
D48*
X1596Y2699D02*
Y2912D01*
X1423D02*
X1596D01*
X1423Y2699D02*
Y2912D01*
Y2699D02*
X1596D01*
D49*
X1707Y2844D02*
Y2884D01*
X1687Y2864D02*
X1726D01*
X1890Y2844D02*
Y2884D01*
X1870Y2864D02*
X1909D01*
X1778D02*
X1818D01*
X1798Y2844D02*
Y2884D01*
X1102Y2849D02*
X1142D01*
X1122Y2830D02*
Y2869D01*
X1713Y3051D02*
Y3091D01*
X1693Y3071D02*
X1732D01*
X1722Y2608D02*
Y2648D01*
X1703Y2628D02*
X1742D01*
X1409Y2547D02*
Y2587D01*
X1390Y2567D02*
X1429D01*
X1654Y2936D02*
Y2975D01*
X1634Y2956D02*
X1673D01*
X1181Y2677D02*
X1181Y2638D01*
X1161Y2657D02*
X1201Y2657D01*
X1161Y2461D02*
X1201D01*
X1181Y2441D02*
Y2480D01*
X1161Y2559D02*
X1201D01*
X1181Y2539D02*
Y2579D01*
X1258Y2991D02*
X1297D01*
X1277Y2971D02*
Y3010D01*
X1102Y2992D02*
X1142D01*
X1122Y2972D02*
Y3012D01*
M02*
