G04*
G04 #@! TF.GenerationSoftware,Altium Limited,Altium Designer,24.8.2 (39)*
G04*
G04 Layer_Color=255*
%FSLAX23Y23*%
%MOIN*%
G70*
G04*
G04 #@! TF.SameCoordinates,0D03BC48-351D-4F96-96CD-3B8D4E6E46E2*
G04*
G04*
G04 #@! TF.FilePolarity,Positive*
G04*
G01*
G75*
%ADD19R,0.028X0.035*%
G04:AMPARAMS|DCode=20|XSize=9mil|YSize=24mil|CornerRadius=2mil|HoleSize=0mil|Usage=FLASHONLY|Rotation=180.000|XOffset=0mil|YOffset=0mil|HoleType=Round|Shape=RoundedRectangle|*
%AMROUNDEDRECTD20*
21,1,0.009,0.020,0,0,180.0*
21,1,0.005,0.024,0,0,180.0*
1,1,0.004,-0.003,0.010*
1,1,0.004,0.003,0.010*
1,1,0.004,0.003,-0.010*
1,1,0.004,-0.003,-0.010*
%
%ADD20ROUNDEDRECTD20*%
G04:AMPARAMS|DCode=21|XSize=24mil|YSize=9mil|CornerRadius=2mil|HoleSize=0mil|Usage=FLASHONLY|Rotation=180.000|XOffset=0mil|YOffset=0mil|HoleType=Round|Shape=RoundedRectangle|*
%AMROUNDEDRECTD21*
21,1,0.024,0.005,0,0,180.0*
21,1,0.020,0.009,0,0,180.0*
1,1,0.004,-0.010,0.003*
1,1,0.004,0.010,0.003*
1,1,0.004,0.010,-0.003*
1,1,0.004,-0.010,-0.003*
%
%ADD21ROUNDEDRECTD21*%
%ADD22R,0.035X0.028*%
%ADD23R,0.040X0.030*%
%ADD24R,0.050X0.060*%
%ADD25R,0.030X0.040*%
%ADD26R,0.060X0.050*%
%ADD27R,0.047X0.047*%
G04:AMPARAMS|DCode=40|XSize=81mil|YSize=120mil|CornerRadius=2mil|HoleSize=0mil|Usage=FLASHONLY|Rotation=180.000|XOffset=0mil|YOffset=0mil|HoleType=Round|Shape=RoundedRectangle|*
%AMROUNDEDRECTD40*
21,1,0.081,0.116,0,0,180.0*
21,1,0.077,0.120,0,0,180.0*
1,1,0.004,-0.038,0.058*
1,1,0.004,0.038,0.058*
1,1,0.004,0.038,-0.058*
1,1,0.004,-0.038,-0.058*
%
%ADD40ROUNDEDRECTD40*%
%ADD41C,0.049*%
D19*
X1555Y2951D02*
D03*
Y3002D02*
D03*
X1467Y2951D02*
D03*
Y3002D02*
D03*
X1752Y2780D02*
D03*
Y2728D02*
D03*
X1823Y2780D02*
D03*
Y2728D02*
D03*
X1654Y2531D02*
D03*
Y2480D02*
D03*
X1681Y2778D02*
D03*
Y2727D02*
D03*
X1348Y2852D02*
D03*
Y2904D02*
D03*
X1277Y2852D02*
D03*
Y2904D02*
D03*
X1206Y2901D02*
D03*
Y2849D02*
D03*
D20*
X1539Y2721D02*
D03*
X1480D02*
D03*
X1539Y2890D02*
D03*
X1480D02*
D03*
D21*
X1575Y2795D02*
D03*
Y2815D02*
D03*
X1575Y2835D02*
D03*
Y2854D02*
D03*
Y2874D02*
D03*
Y2776D02*
D03*
Y2756D02*
D03*
Y2736D02*
D03*
X1445Y2795D02*
D03*
Y2815D02*
D03*
X1445Y2835D02*
D03*
Y2854D02*
D03*
Y2874D02*
D03*
Y2776D02*
D03*
Y2756D02*
D03*
Y2736D02*
D03*
D22*
X1850Y3002D02*
D03*
X1902D02*
D03*
X1268Y2559D02*
D03*
X1319D02*
D03*
X1268Y2630D02*
D03*
X1319D02*
D03*
X1270Y2488D02*
D03*
X1321D02*
D03*
X1270Y2701D02*
D03*
X1321D02*
D03*
X1337Y3072D02*
D03*
X1388D02*
D03*
X2087Y3071D02*
D03*
X2036D02*
D03*
X1546Y2638D02*
D03*
X1495D02*
D03*
D23*
X1732Y2480D02*
D03*
Y2544D02*
D03*
D24*
X1811Y2480D02*
D03*
Y2570D02*
D03*
D25*
X1486Y2559D02*
D03*
X1550D02*
D03*
D26*
X1445Y2480D02*
D03*
X1535D02*
D03*
D27*
X1179Y3071D02*
D03*
X1262D02*
D03*
X2246D02*
D03*
X2163D02*
D03*
D40*
X1510Y2805D02*
D03*
D41*
X1707Y2864D02*
D03*
X1890D02*
D03*
X1798D02*
D03*
X1122Y2849D02*
D03*
X1713Y3071D02*
D03*
X1722Y2628D02*
D03*
X1409Y2567D02*
D03*
X1654Y2956D02*
D03*
X1181Y2657D02*
D03*
Y2461D02*
D03*
X1181Y2559D02*
D03*
X1277Y2991D02*
D03*
X1122Y2992D02*
D03*
M02*
